Ref_01_analogdata.mot
version=1
nRows=49
nColumns=19
inDegrees=yes
endheader
time	1_ground_force_vx	1_ground_force_vy	1_ground_force_vz	1_ground_force_px	1_ground_force_py	1_ground_force_pz	1_ground_torque_x	1_ground_torque_y	1_ground_torque_z	2_ground_force_vx	2_ground_force_vy	2_ground_force_vz	2_ground_force_px	2_ground_force_py	2_ground_force_pz	2_ground_torque_x	2_ground_torque_y	2_ground_torque_z
1.160000	-1.039988	626.893921	-0.120585	-0.204638	0.000000	-0.346046	0.000219	-0.131736	0.000025	0.000000	0.000000	-0.000000	-0.200000	0.000000	0.302000	0.000000	0.000000	-0.000000
1.161000	0.029041	620.595337	-0.297523	-0.204390	0.000000	-0.350064	-0.000003	-0.062969	0.000030	0.000000	0.000000	-0.000000	-0.200000	0.000000	0.302000	0.000000	0.000000	-0.000000
1.162000	-0.238216	628.993469	-0.562931	-0.204216	0.000000	-0.347498	0.000092	-0.242776	0.000217	0.000000	0.000000	-0.000000	-0.200000	0.000000	0.302000	0.000000	0.000000	-0.000000
1.163000	-0.416388	627.593811	-1.093746	-0.204108	0.000000	-0.347385	-0.000021	0.031104	-0.000054	0.000000	0.000000	-0.000000	-0.200000	0.000000	0.302000	0.000000	0.000000	-0.000000
1.164000	0.029041	626.544006	-0.385992	-0.204699	0.000000	-0.347391	-0.000005	-0.099896	0.000062	0.000000	0.000000	-0.000000	-0.200000	0.000000	0.302000	0.000000	0.000000	-0.000000
1.165000	0.474471	632.492676	-2.420785	-0.204539	0.000000	-0.346075	-0.000081	-0.107592	0.000412	0.000000	0.000000	-0.000000	-0.200000	0.000000	0.302000	0.000000	0.000000	-0.000000
1.166000	0.296299	624.444458	-0.828338	-0.204480	0.000000	-0.347109	-0.000058	-0.122772	0.000163	0.000000	0.000000	-0.000000	-0.200000	0.000000	0.302000	0.000000	0.000000	-0.000000
1.167000	0.385384	627.943726	-0.385992	-0.203233	0.000000	-0.347797	-0.000131	-0.214166	0.000132	0.000000	0.000000	-0.000000	-0.200000	0.000000	0.302000	0.000000	0.000000	-0.000000
1.168000	-0.416388	625.494263	-1.182216	-0.204181	0.000000	-0.346517	0.000091	-0.136190	0.000257	0.000000	0.000000	-0.000000	-0.200000	0.000000	0.302000	0.000000	0.000000	-0.000000
1.169000	-0.327302	629.693298	-1.005277	-0.204559	0.000000	-0.346571	0.000088	-0.169780	0.000271	0.000000	0.000000	-0.000000	-0.200000	0.000000	0.302000	0.000000	0.000000	-0.000000
1.170000	0.207213	628.993469	-0.385992	-0.203925	0.000000	-0.346696	-0.000067	-0.203965	0.000125	0.000000	0.000000	-0.000000	-0.200000	0.000000	0.302000	0.000000	0.000000	-0.000000
1.171000	0.563556	634.242310	-0.032115	-0.204584	0.000000	-0.345731	-0.000069	-0.077167	0.000004	0.000000	0.000000	-0.000000	-0.200000	0.000000	0.302000	0.000000	0.000000	-0.000000
1.172000	-0.060045	618.495789	0.321761	-0.204287	0.000000	-0.348230	0.000009	-0.088683	-0.000046	0.000000	0.000000	-0.000000	-0.200000	0.000000	0.302000	0.000000	0.000000	-0.000000
1.173000	1.098071	625.144348	-0.032115	-0.203423	0.000000	-0.347424	-0.000319	-0.181649	0.000009	0.000000	0.000000	-0.000000	-0.200000	0.000000	0.302000	0.000000	0.000000	-0.000000
1.174000	-0.327302	627.243835	-0.828339	-0.204927	0.000000	-0.347411	0.000118	-0.226592	0.000299	0.000000	0.000000	-0.000000	-0.200000	0.000000	0.302000	0.000000	0.000000	-0.000000
1.175000	0.029041	626.194092	-0.828338	-0.204643	0.000000	-0.347198	-0.000005	-0.116547	0.000154	0.000000	0.000000	-0.000000	-0.200000	0.000000	0.302000	0.000000	0.000000	-0.000000
1.176000	-0.861817	625.494263	-1.359154	-0.204591	0.000000	-0.347029	0.000601	-0.436230	0.000948	0.000000	0.000000	-0.000000	-0.200000	0.000000	0.302000	0.000000	0.000000	-0.000000
1.177000	-0.950903	624.794434	0.233292	-0.204478	0.000000	-0.346568	0.000226	-0.148412	-0.000055	0.000000	0.000000	-0.000000	-0.200000	0.000000	0.302000	0.000000	0.000000	-0.000000
1.178000	0.207213	622.344971	-0.297523	-0.203673	0.000000	-0.349407	-0.000049	-0.147790	0.000071	0.000000	0.000000	-0.000000	-0.200000	0.000000	0.302000	0.000000	0.000000	-0.000000
1.179000	-0.149131	628.293640	0.321761	-0.204220	0.000000	-0.347405	0.000018	-0.074156	-0.000038	0.000000	0.000000	-0.000000	-0.200000	0.000000	0.302000	0.000000	0.000000	-0.000000
1.180000	-0.416388	627.243835	-1.270685	-0.204402	0.000000	-0.346753	-0.000034	0.051145	-0.000104	0.000000	0.000000	-0.000000	-0.200000	0.000000	0.302000	0.000000	0.000000	-0.000000
1.181000	0.207213	627.243835	-0.562931	-0.204635	0.000000	-0.347631	0.000001	0.002785	-0.000002	0.000000	0.000000	-0.000000	-0.200000	0.000000	0.302000	0.000000	0.000000	-0.000000
1.182000	0.741728	631.442932	-2.420785	-0.204604	0.000000	-0.346587	-0.000002	-0.001350	0.000005	0.000000	0.000000	-0.000000	-0.200000	0.000000	0.302000	0.000000	0.000000	-0.000000
1.183000	1.187156	626.194092	0.941046	-0.204526	0.000000	-0.347637	0.000187	0.098634	0.000148	0.000000	0.000000	-0.000000	-0.200000	0.000000	0.302000	0.000000	0.000000	-0.000000
1.184000	0.830813	626.544006	0.233292	-0.204348	0.000000	-0.347904	-0.000259	-0.195049	-0.000073	0.000000	0.000000	-0.000000	-0.200000	0.000000	0.302000	0.000000	0.000000	-0.000000
1.185000	0.207213	625.144348	-0.562931	-0.203949	0.000000	-0.346837	-0.000067	-0.203227	0.000183	0.000000	0.000000	-0.000000	-0.200000	0.000000	0.302000	0.000000	0.000000	-0.000000
1.186000	0.118127	628.293640	-0.562931	-0.204337	0.000000	-0.346894	-0.000071	-0.375280	0.000336	0.000000	0.000000	-0.000000	-0.200000	0.000000	0.302000	0.000000	0.000000	-0.000000
1.187000	-0.950903	626.544006	-0.828339	-0.203883	0.000000	-0.347390	0.000503	-0.331717	0.000439	0.000000	0.000000	-0.000000	-0.200000	0.000000	0.302000	0.000000	0.000000	-0.000000
1.188000	0.563556	631.792847	0.144823	-0.204659	0.000000	-0.346271	0.000031	0.034386	0.000008	0.000000	0.000000	-0.000000	-0.200000	0.000000	0.302000	0.000000	0.000000	-0.000000
1.189000	0.029041	615.346497	0.941046	-0.204784	0.000000	-0.348552	-0.000004	-0.087499	-0.000134	0.000000	0.000000	-0.000000	-0.200000	0.000000	0.302000	0.000000	0.000000	-0.000000
1.190000	1.276242	626.194092	-0.209054	-0.203651	0.000000	-0.347418	-0.000123	-0.060484	0.000020	0.000000	0.000000	-0.000000	-0.200000	0.000000	0.302000	0.000000	0.000000	-0.000000
1.191000	-0.238216	627.943726	-1.005277	-0.204747	0.000000	-0.347285	0.000155	-0.408431	0.000654	0.000000	0.000000	-0.000000	-0.200000	0.000000	0.302000	0.000000	0.000000	-0.000000
1.192000	-0.327302	626.893921	-0.562931	-0.204813	0.000000	-0.347218	0.000090	-0.171866	0.000154	0.000000	0.000000	-0.000000	-0.200000	0.000000	0.302000	0.000000	0.000000	-0.000000
1.193000	-2.376276	627.593811	-1.093747	-0.204575	0.000000	-0.346724	0.001499	-0.395895	0.000690	0.000000	0.000000	-0.000000	-0.200000	0.000000	0.302000	0.000000	0.000000	-0.000000
1.194000	-0.327302	625.494263	-0.651400	-0.204999	0.000000	-0.347324	0.000021	-0.040605	0.000042	0.000000	0.000000	-0.000000	-0.200000	0.000000	0.302000	0.000000	0.000000	-0.000000
1.195000	-0.149130	621.295166	-0.297523	-0.204503	0.000000	-0.349564	0.000049	-0.202529	0.000097	0.000000	0.000000	-0.000000	-0.200000	0.000000	0.302000	0.000000	0.000000	-0.000000
1.196000	0.029041	629.693298	0.410231	-0.204153	0.000000	-0.347373	-0.000004	-0.084735	-0.000055	0.000000	0.000000	-0.000000	-0.200000	0.000000	0.302000	0.000000	0.000000	-0.000000
1.197000	-0.416388	629.693298	-1.359154	-0.204152	0.000000	-0.347081	-0.000096	0.144451	-0.000312	0.000000	0.000000	-0.000000	-0.200000	0.000000	0.302000	0.000000	0.000000	-0.000000
1.198000	0.029041	628.643555	-0.474462	-0.204799	0.000000	-0.347452	-0.000005	-0.118109	0.000089	0.000000	0.000000	-0.000000	-0.200000	0.000000	0.302000	0.000000	0.000000	-0.000000
1.199000	0.741728	634.242310	-2.243846	-0.204757	0.000000	-0.346092	0.000041	0.035167	-0.000124	0.000000	0.000000	-0.000000	-0.200000	0.000000	0.302000	0.000000	0.000000	-0.000000
1.200000	1.721671	625.844177	0.056354	-0.204587	0.000000	-0.347444	0.000249	0.090408	0.000008	0.000000	0.000000	-0.000000	-0.200000	0.000000	0.302000	0.000000	0.000000	-0.000000
1.201000	0.563556	627.243835	-0.032115	-0.203761	0.000000	-0.348217	-0.000219	-0.243897	0.000012	0.000000	0.000000	-0.000000	-0.200000	0.000000	0.302000	0.000000	0.000000	-0.000000
1.202000	0.207213	625.144348	-0.120585	-0.204183	0.000000	-0.346690	-0.000049	-0.148942	0.000029	0.000000	0.000000	-0.000000	-0.200000	0.000000	0.302000	0.000000	0.000000	-0.000000
1.203000	0.207213	628.293640	-0.651400	-0.204337	0.000000	-0.346748	-0.000098	-0.296036	0.000307	0.000000	0.000000	-0.000000	-0.200000	0.000000	0.302000	0.000000	0.000000	-0.000000
1.204000	-0.594559	629.343384	-0.385992	-0.203807	0.000000	-0.346961	0.000158	-0.166894	0.000102	0.000000	0.000000	-0.000000	-0.200000	0.000000	0.302000	0.000000	0.000000	-0.000000
1.205000	0.563556	632.842651	-0.120585	-0.204940	0.000000	-0.346267	-0.000035	-0.039059	0.000007	0.000000	0.000000	-0.000000	-0.200000	0.000000	0.302000	0.000000	0.000000	-0.000000
1.206000	0.296298	616.746216	0.941046	-0.204654	0.000000	-0.348814	-0.000072	-0.149037	-0.000227	0.000000	0.000000	-0.000000	-0.200000	0.000000	0.302000	0.000000	0.000000	-0.000000
1.207000	1.187157	627.943726	-0.209054	-0.203699	0.000000	-0.347212	-0.000087	-0.046264	0.000015	0.000000	0.000000	-0.000000	-0.200000	0.000000	0.302000	0.000000	0.000000	-0.000000
1.208000	-0.505474	628.293640	-0.562931	-0.204802	0.000000	-0.347478	0.000250	-0.311165	0.000279	0.000000	0.000000	-0.000000	-0.200000	0.000000	0.302000	0.000000	0.000000	-0.000000
